<?xml version="1.0" encoding="utf-8"?>
<!-- Generator: Adobe Illustrator 27.1.1, SVG Export Plug-In . SVG Version: 6.00 Build 0)  -->
<svg version="1.1"
	 id="svg4692" xmlns:rdf="http://www.w3.org/1999/02/22-rdf-syntax-ns#" xmlns:svg="http://www.w3.org/2000/svg" xmlns:sodipodi="http://sodipodi.sourceforge.net/DTD/sodipodi-0.dtd" xmlns:ns1="http://sozi.baierouge.fr" xmlns:cc="http://creativecommons.org/ns#" xmlns:dc="http://purl.org/dc/elements/1.1/" xmlns:inkscape="http://www.inkscape.org/namespaces/inkscape"
	 xmlns="http://www.w3.org/2000/svg" xmlns:xlink="http://www.w3.org/1999/xlink" x="0px" y="0px" viewBox="0 0 1425.8 353.7"
	 style="enable-background:new 0 0 1425.8 353.7;" xml:space="preserve">
<style type="text/css">
	.st0{fill:#666666;}
	.st1{fill:url(#SVGID_1_);}
</style>
<sodipodi:namedview  bordercolor="#666666" borderopacity="1.0" id="namedview4696" inkscape:current-layer="layer1" inkscape:cx="642.17049" inkscape:cy="175.65506" inkscape:document-units="mm" inkscape:pageopacity="0.0" inkscape:pageshadow="2" inkscape:window-height="851" inkscape:window-maximized="0" inkscape:window-width="1099" inkscape:window-x="605" inkscape:window-y="226" inkscape:zoom="0.30699632" pagecolor="#ffffff" showgrid="false">
	</sodipodi:namedview>
<g id="text4703" transform="translate(-14.426 -21.336)">
	<path id="path5264" class="st0" d="M509.9,200.9v19.1c-5.8-3.2-11.6-5.6-17.4-7.1c-5.8-1.6-11.6-2.4-17.5-2.4
		c-13.2,0-23.5,4.2-30.9,12.7c-7.3,8.4-11,20.1-11,35.3c0,15.2,3.7,27,11,35.4c7.3,8.4,17.6,12.5,30.9,12.5c5.9,0,11.8-0.8,17.5-2.3
		c5.8-1.6,11.7-4,17.4-7.2v18.9c-5.7,2.7-11.6,4.7-17.8,6c-6.1,1.3-12.5,2-19.4,2c-18.7,0-33.6-5.9-44.6-17.7
		c-11-11.8-16.5-27.6-16.5-47.6c0-20.3,5.6-36.2,16.7-47.8c11.2-11.6,26.5-17.4,45.9-17.4c6.3,0,12.4,0.7,18.4,2
		C498.5,196.3,504.3,198.3,509.9,200.9"/>
	<path id="path5266" class="st0" d="M593.4,210.4c-11,0-19.6,4.3-26,12.9c-6.4,8.5-9.5,20.2-9.5,35.1c0,14.9,3.1,26.6,9.4,35.2
		c6.4,8.5,15.1,12.8,26.1,12.8c10.9,0,19.5-4.3,25.9-12.9c6.4-8.6,9.5-20.3,9.5-35.1c0-14.7-3.2-26.4-9.5-35
		C612.9,214.7,604.3,210.4,593.4,210.4 M593.4,193.1c17.8,0,31.7,5.8,41.9,17.3c10.1,11.5,15.2,27.5,15.2,48
		c0,20.4-5.1,36.3-15.2,48c-10.1,11.5-24.1,17.3-41.9,17.3c-17.8,0-31.8-5.8-42-17.3c-10.1-11.6-15.1-27.6-15.1-48
		c0-20.4,5-36.4,15.1-48C561.6,198.9,575.6,193.1,593.4,193.1"/>
	<path id="path5268" class="st0" d="M781,219.9c5.1-9.2,11.2-15.9,18.3-20.3c7.1-4.4,15.5-6.5,25.1-6.6c13,0,22.9,4.6,30,13.7
		c7,9,10.5,21.9,10.5,38.6v75h-20.5V246c0-11.9-2.1-20.8-6.3-26.5c-4.2-5.8-10.7-8.7-19.3-8.7c-10.6,0-18.9,3.5-25.1,10.5
		c-6.1,7-9.2,16.6-9.2,28.8v70.3h-20.5V246c0-12-2.1-20.8-6.3-26.5c-4.2-5.8-10.7-8.7-19.5-8.7c-10.4,0-18.7,3.6-24.9,10.7
		c-6.1,7-9.2,16.6-9.2,28.6v70.3h-20.5V196.1H704v19.3c4.7-7.6,10.3-13.2,16.8-16.9c6.5-3.6,14.2-5.4,23.2-5.4c9,0,16.7,2.3,23,6.9
		C773.3,204.5,778,211.2,781,219.9"/>
	<path id="path5270" class="st0" d="M925.1,301.8v65.9h-20.5V196.1h20.5V215c4.3-7.4,9.7-12.9,16.2-16.4c6.6-3.6,14.4-5.4,23.5-5.4
		c15.1,0,27.3,6,36.7,18c9.5,12,14.2,27.8,14.2,47.3c0,19.5-4.7,35.3-14.2,47.3c-9.4,12-21.6,18-36.7,18c-9.1,0-16.9-1.8-23.5-5.3
		C934.8,314.7,929.4,309.2,925.1,301.8 M994.6,258.4c0-15-3.1-26.8-9.3-35.3c-6.1-8.6-14.6-12.9-25.4-12.9
		c-10.8,0-19.3,4.3-25.5,12.9c-6.1,8.5-9.2,20.3-9.2,35.3c0,15,3.1,26.8,9.2,35.4c6.2,8.5,14.7,12.8,25.5,12.8s19.3-4.3,25.4-12.8
		C991.5,285.2,994.6,273.4,994.6,258.4"/>
	<path id="path5272" class="st0" d="M1106.2,257.9c-16.5,0-27.9,1.9-34.3,5.7c-6.4,3.8-9.5,10.2-9.5,19.3c0,7.3,2.4,13,7.1,17.3
		c4.8,4.2,11.3,6.3,19.5,6.3c11.3,0,20.4-4,27.2-12c6.9-8.1,10.3-18.8,10.3-32.1v-4.6L1106.2,257.9 M1146.9,249.5v70.9h-20.4v-18.9
		c-4.7,7.5-10.5,13.1-17.4,16.8c-7,3.6-15.5,5.3-25.5,5.3c-12.7,0-22.9-3.6-30.4-10.7c-7.5-7.2-11.2-16.8-11.2-28.8
		c0-14,4.7-24.5,14-31.6c9.4-7.1,23.4-10.7,42-10.7h28.6v-2c0-9.4-3.1-16.7-9.3-21.8c-6.1-5.2-14.8-7.8-26-7.8
		c-7.1,0-14,0.9-20.8,2.6c-6.7,1.7-13.2,4.3-19.4,7.7v-18.9c7.5-2.9,14.7-5,21.8-6.4c7-1.5,13.9-2.2,20.5-2.2c18,0,31.4,4.7,40.3,14
		C1142.5,216.4,1146.9,230.5,1146.9,249.5"/>
	<path id="path5274" class="st0" d="M1292.9,245.4v75h-20.4V246c0-11.8-2.3-20.6-6.9-26.4c-4.6-5.8-11.5-8.8-20.6-8.8
		c-11,0-19.7,3.5-26.1,10.5c-6.4,7-9.5,16.6-9.5,28.8v70.3h-20.5V196.1h20.5v19.3c4.9-7.5,10.6-13.1,17.2-16.8
		c6.7-3.7,14.3-5.6,23-5.6c14.3,0,25.1,4.4,32.4,13.3C1289.3,215.2,1292.9,228.2,1292.9,245.4"/>
	<path id="path5276" class="st0" d="M1385.6,332c-5.8,14.8-11.4,24.5-16.9,29c-5.5,4.5-12.8,6.8-22,6.8h-16.3v-17.1h12
		c5.6,0,10-1.3,13.1-4s6.6-9,10.3-18.9l3.7-9.3l-50.3-122.3h21.6l38.9,97.3l38.9-97.3h21.6L1385.6,332"/>
</g>
<g id="text4707" transform="translate(-416.34 -21.336)">
	<path id="path5241" class="st0" d="M854.4,123.5c0-6.7-1.4-11.8-4.2-15.5c-2.7-3.7-6.6-5.5-11.6-5.5c-4.9,0-8.8,1.8-11.6,5.5
		c-2.7,3.7-4.1,8.8-4.1,15.5c0,6.6,1.4,11.8,4.1,15.5c2.8,3.7,6.6,5.5,11.6,5.5c5,0,8.8-1.8,11.6-5.5
		C853,135.3,854.4,130.2,854.4,123.5 M863.6,145.3c0,9.5-2.1,16.6-6.4,21.3c-4.2,4.7-10.7,7-19.5,7c-3.2,0-6.3-0.3-9.2-0.8
		c-2.9-0.5-5.7-1.2-8.4-2.2v-9c2.7,1.5,5.4,2.6,8,3.3c2.6,0.7,5.3,1.1,8.1,1.1c6,0,10.6-1.6,13.6-4.8c3-3.1,4.5-7.9,4.5-14.3v-4.6
		c-1.9,3.3-4.3,5.8-7.3,7.4c-3,1.6-6.5,2.5-10.7,2.5c-6.9,0-12.4-2.6-16.6-7.9c-4.2-5.2-6.3-12.2-6.3-20.8c0-8.7,2.1-15.6,6.3-20.9
		c4.2-5.2,9.7-7.9,16.6-7.9c4.1,0,7.7,0.8,10.7,2.5c3,1.6,5.4,4.1,7.3,7.4v-8.5h9.2L863.6,145.3"/>
	<path id="path5243" class="st0" d="M930.5,121.9v4.5h-42.4c0.4,6.3,2.3,11.2,5.7,14.5c3.4,3.3,8.2,5,14.3,5c3.5,0,7-0.4,10.3-1.3
		c3.3-0.9,6.6-2.2,9.9-3.9v8.7c-3.3,1.4-6.7,2.5-10.2,3.2c-3.5,0.7-7,1.1-10.6,1.1c-8.9,0-16-2.6-21.3-7.8
		c-5.2-5.2-7.8-12.2-7.8-21.1c0-9.2,2.5-16.5,7.4-21.8c5-5.4,11.7-8.1,20.1-8.1c7.5,0,13.5,2.4,17.9,7.3
		C928.3,107,930.5,113.5,930.5,121.9 M921.3,119.2c-0.1-5-1.5-9.1-4.3-12.1c-2.7-3-6.4-4.5-10.9-4.5c-5.1,0-9.3,1.5-12.4,4.4
		c-3.1,2.9-4.8,7-5.3,12.3L921.3,119.2"/>
	<path id="path5245" class="st0" d="M992,118.4v33.8h-9.2v-33.5c0-5.3-1-9.3-3.1-11.9c-2.1-2.6-5.2-4-9.3-4c-5,0-8.9,1.6-11.8,4.8
		c-2.9,3.2-4.3,7.5-4.3,13v31.7h-9.3V96.2h9.3v8.7c2.2-3.4,4.8-5.9,7.8-7.6c3-1.7,6.5-2.5,10.4-2.5c6.4,0,11.3,2,14.6,6
		C990.4,104.8,992,110.6,992,118.4"/>
	<path id="path5247" class="st0" d="M1058.5,121.9v4.5h-42.4c0.4,6.3,2.3,11.2,5.7,14.5c3.4,3.3,8.2,5,14.3,5c3.5,0,7-0.4,10.3-1.3
		c3.3-0.9,6.6-2.2,9.9-3.9v8.7c-3.3,1.4-6.7,2.5-10.2,3.2c-3.5,0.7-7,1.1-10.6,1.1c-8.9,0-16-2.6-21.3-7.8
		c-5.2-5.2-7.8-12.2-7.8-21.1c0-9.2,2.5-16.5,7.4-21.8c5-5.4,11.7-8.1,20.1-8.1c7.5,0,13.5,2.4,17.9,7.3
		C1056.3,107,1058.5,113.5,1058.5,121.9 M1049.3,119.2c-0.1-5-1.5-9.1-4.3-12.1c-2.7-3-6.4-4.5-10.9-4.5c-5.1,0-9.3,1.5-12.4,4.4
		c-3.1,2.9-4.8,7-5.3,12.3L1049.3,119.2"/>
	<path id="path5249" class="st0" d="M1105.9,104.8c-1-0.6-2.2-1-3.4-1.3c-1.2-0.3-2.5-0.5-4-0.5c-5.2,0-9.2,1.7-12,5.1
		c-2.8,3.4-4.2,8.2-4.2,14.6v29.5h-9.3V96.2h9.3v8.7c1.9-3.4,4.5-5.9,7.6-7.6c3.1-1.7,6.9-2.5,11.3-2.5c0.6,0,1.3,0.1,2.1,0.2
		c0.8,0.1,1.6,0.2,2.6,0.4L1105.9,104.8"/>
	<path id="path5251" class="st0" d="M1115.6,96.2h9.2v56.1h-9.2V96.2 M1115.6,74.3h9.2V86h-9.2V74.3"/>
	<path id="path5253" class="st0" d="M1184.4,98.3v8.6c-2.6-1.4-5.2-2.5-7.9-3.2c-2.6-0.7-5.2-1.1-7.9-1.1c-6,0-10.6,1.9-13.9,5.7
		c-3.3,3.8-5,9.1-5,15.9c0,6.8,1.7,12.2,5,16c3.3,3.8,7.9,5.7,13.9,5.7c2.7,0,5.3-0.4,7.9-1.1c2.6-0.7,5.3-1.8,7.9-3.3v8.5
		c-2.6,1.2-5.2,2.1-8,2.7c-2.7,0.6-5.7,0.9-8.8,0.9c-8.4,0-15.2-2.7-20.1-8c-5-5.3-7.5-12.5-7.5-21.5c0-9.1,2.5-16.3,7.5-21.6
		c5-5.2,11.9-7.9,20.7-7.9c2.8,0,5.6,0.3,8.3,0.9C1179.3,96.3,1181.9,97.1,1184.4,98.3"/>
	<path id="path5255" class="st0" d="M1233,74.3h9.2v77.9h-9.2V74.3"/>
	<path id="path5257" class="st0" d="M1283.2,102.6c-4.9,0-8.8,1.9-11.7,5.8c-2.9,3.8-4.3,9.1-4.3,15.8c0,6.7,1.4,12,4.3,15.9
		c2.9,3.8,6.8,5.8,11.8,5.8c4.9,0,8.8-1.9,11.7-5.8c2.9-3.9,4.3-9.1,4.3-15.8c0-6.6-1.4-11.9-4.3-15.8
		C1292,104.6,1288.1,102.6,1283.2,102.6 M1283.2,94.8c8,0,14.3,2.6,18.9,7.8c4.6,5.2,6.9,12.4,6.9,21.6c0,9.2-2.3,16.4-6.9,21.6
		c-4.6,5.2-10.9,7.8-18.9,7.8c-8,0-14.4-2.6-18.9-7.8c-4.5-5.2-6.8-12.4-6.8-21.6c0-9.2,2.3-16.4,6.8-21.6
		C1268.8,97.4,1275.1,94.8,1283.2,94.8"/>
	<path id="path5259" class="st0" d="M1361,123.5c0-6.7-1.4-11.8-4.2-15.5c-2.7-3.7-6.6-5.5-11.6-5.5c-4.9,0-8.8,1.8-11.6,5.5
		c-2.7,3.7-4.1,8.8-4.1,15.5c0,6.6,1.4,11.8,4.1,15.5c2.8,3.7,6.6,5.5,11.6,5.5c5,0,8.8-1.8,11.6-5.5
		C1359.6,135.3,1361,130.2,1361,123.5 M1370.2,145.3c0,9.5-2.1,16.6-6.4,21.3c-4.2,4.7-10.7,7-19.5,7c-3.2,0-6.3-0.3-9.2-0.8
		c-2.9-0.5-5.7-1.2-8.4-2.2v-9c2.7,1.5,5.4,2.6,8,3.3c2.6,0.7,5.3,1.1,8.1,1.1c6,0,10.6-1.6,13.6-4.8c3-3.1,4.5-7.9,4.5-14.3v-4.6
		c-1.9,3.3-4.3,5.8-7.3,7.4c-3,1.6-6.5,2.5-10.7,2.5c-6.9,0-12.4-2.6-16.6-7.9c-4.2-5.2-6.3-12.2-6.3-20.8c0-8.7,2.1-15.6,6.3-20.9
		c4.2-5.2,9.7-7.9,16.6-7.9c4.1,0,7.7,0.8,10.7,2.5c3,1.6,5.4,4.1,7.3,7.4v-8.5h9.2L1370.2,145.3"/>
	<path id="path5261" class="st0" d="M1410.9,102.6c-4.9,0-8.8,1.9-11.7,5.8c-2.9,3.8-4.3,9.1-4.3,15.8c0,6.7,1.4,12,4.3,15.9
		c2.9,3.8,6.8,5.8,11.8,5.8c4.9,0,8.8-1.9,11.7-5.8c2.9-3.9,4.3-9.1,4.3-15.8c0-6.6-1.4-11.9-4.3-15.8
		C1419.7,104.6,1415.8,102.6,1410.9,102.6 M1410.9,94.8c8,0,14.3,2.6,18.9,7.8c4.6,5.2,6.9,12.4,6.9,21.6c0,9.2-2.3,16.4-6.9,21.6
		c-4.6,5.2-10.9,7.8-18.9,7.8c-8,0-14.4-2.6-18.9-7.8c-4.5-5.2-6.8-12.4-6.8-21.6c0-9.2,2.3-16.4,6.8-21.6
		C1396.6,97.4,1402.9,94.8,1410.9,94.8"/>
</g>
<linearGradient id="SVGID_1_" gradientUnits="userSpaceOnUse" x1="177.5831" y1="345.1603" x2="176.1588" y2="-1.840118e-02">
	<stop  offset="0" style="stop-color:#2294FE"/>
	<stop  offset="1" style="stop-color:#014F96"/>
</linearGradient>
<path class="st1" d="M150.5,302.8c-42.1-42.1-42.1-110.2,0-152.3s110.2-42.1,152.3,0c35.8,35.8,41.1,90.4,16,131.9
	c51.6-69.3,46-167.7-16.9-230.6c-69.1-69.1-181.1-69.1-250.1,0s-69.1,181.1,0,250.1c62.9,62.9,161.3,68.5,230.5,16.9
	C240.9,343.9,186.3,338.6,150.5,302.8z"/>
</svg>
